# xmcd
#
# Track frame offsets: 
#        150
#        18522
#        34267
#        49157
#        64927
#        82930
#        100240
#        115382
#        138042
#        159367
#        180847
#        195654
#        217217
#        238775
#
# Disc length: 3363 seconds
#
# Revision: 2
# Processed by: cddbd v1.5.2PL0 Copyright (c) Steve Scherf et al.
# Submitted via: ExactAudioCopyFreeDBPlugin 1.0
#
DISCID=bb0d210e
DTITLE=Irma Thomas - Simply Grand
DYEAR=2008
DGENRE=Soul
TTITLE0=River is Waiting (with Henry Butler)
TTITLE1=If I Had Any Sense I'd Go Back Home (with Dr. John)
TTITLE2=Too Much Thinking (with Jon Cleary)
TTITLE3=Early in the Morning (with Tom McDermott)
TTITLE4=What Can I Do (with David Torkanowsky)
TTITLE5=Underground Stream (with David Egan)
TTITLE6=Thinking About You (with Norah Jones)
TTITLE7=Be You (with Dr. John)
TTITLE8=This Bitter Earth (with Ellis Marsalis)
TTITLE9=Cold Rain (with David Torkanowsky)
TTITLE10=Somebody Told You (with John Medeski)
TTITLE11=Overrated (with Davell Crawford)
TTITLE12=Same Old Blues (with Marcia Ball)
TTITLE13=I Think It's Going to Rain Today (with Randy Newman)
EXTD=
EXTT0=
EXTT1=
EXTT2=
EXTT3=
EXTT4=
EXTT5=
EXTT6=
EXTT7=
EXTT8=
EXTT9=
EXTT10=
EXTT11=
EXTT12=
EXTT13=
PLAYORDER=
